<svg width="103" height="16" viewBox="0 0 103 16" fill="none" xmlns="http://www.w3.org/2000/svg">
<path d="M17.5801 15.8369V11.7379L13.2329 15.0683H7.199L7.199 8.82673H11.475L13.7317 10.6433V6.03199L11.475 8.08147H7.199L7.199 1.88645L13.2329 1.88645L17.5326 5.1237V1.28092L0.523755 1.28092V1.60698C0.523755 1.60698 2.28165 1.67685 2.28165 3.26053L2.28165 13.8573C2.28165 15.3944 0.5 15.5108 0.5 15.5108L0.5 15.8369L17.5801 15.8369Z" fill="url(#paint0_linear_8645_2038)"/>
<path d="M18.6416 15.8369H23.2027L25.3169 14.1833L25.3169 8.08147C25.8395 7.35949 26.8372 6.42791 28.4051 6.42791C30.163 6.42791 30.353 7.96502 30.353 9.87476L30.353 13.7175C30.353 15.2779 28.1675 15.5108 28.1675 15.5108V15.8369H37.0283L35.2466 14.0203V9.94463C35.2466 9.45555 35.0566 8.43081 34.724 7.96502C35.3179 7.21976 36.4106 6.47449 37.8597 6.47449C39.7839 6.47449 40.0927 7.94173 40.0927 9.87476V15.8369H46.7442V15.5108C45.5802 15.441 44.9863 14.9053 44.9863 13.8573L44.9626 9.68845C44.9388 7.10331 42.4445 5.35659 39.1425 5.35659C36.2206 5.35659 34.819 6.6841 34.3202 7.38278C33.4887 6.10186 31.5645 5.35659 29.5929 5.35659C26.7897 5.35659 25.5544 6.63752 24.9843 7.35949L24.8655 6.82383L23.2264 5.47304L18.6416 5.47304V5.79909C19.8057 5.86896 20.3995 6.40462 20.4233 7.45265L20.4233 13.8573C20.4233 15.4177 18.6416 15.5108 18.6416 15.5108V15.8369Z" fill="url(#paint1_linear_8645_2038)"/>
<path d="M47.0007 10.7831C47.0244 13.8573 50.8728 15.9766 55.4576 15.9766C58.7358 15.9766 62.2754 15.0217 63.9145 13.0421L63.4631 12.6928C62.3466 13.6011 60.3987 13.9737 58.7833 13.9504C55.1725 13.8806 52.2744 12.1804 52.1556 10.0844C52.1318 9.64187 52.1556 9.24595 52.2506 8.87331L64.152 8.87331C64.152 7.68555 62.0378 5.3333 56.5978 5.3333C51.3242 5.3333 46.9532 7.54581 47.0007 10.7831ZM56.5266 5.79909C59.2109 5.79909 59.4247 8.10476 59.4247 8.10476H52.4407C53.0345 6.6841 54.4599 5.79909 56.5266 5.79909Z" fill="url(#paint2_linear_8645_2038)"/>
<path d="M64.3558 5.79909C65.5198 5.86896 66.1137 6.40462 66.1137 7.45265V13.8573C66.1137 15.4177 64.3558 15.4875 64.3558 15.4875V15.8369H71.0073V8.57055C71.2449 8.31436 71.5537 8.10476 71.8625 7.91844C73.2403 6.59094 74.7369 6.63752 74.7369 6.63752L77.5163 9.10621L78.704 5.54291C78.2289 5.47304 77.7301 5.42646 77.1837 5.42646C74.5468 5.42646 72.8365 6.17173 70.746 7.61568L70.5084 6.75396L68.9406 5.47304H64.3558V5.79909Z" fill="url(#paint3_linear_8645_2038)"/>
<path d="M79.1862 5.79909C80.3739 5.86896 80.9678 6.42791 80.9678 7.45265V15.8369L87.6431 15.8369V15.5108C86.4553 15.441 85.8614 14.882 85.8614 13.8573V5.47304L79.1862 5.47304V5.79909ZM79.8988 2.07277L83.0821 4.14554L86.2415 2.07277L83.0821 0L79.8988 2.07277Z" fill="url(#paint4_linear_8645_2038)"/>
<path d="M98.8179 14.0203C98.8179 14.7656 97.844 15.3478 96.2286 15.3478C95.8485 15.3478 95.4209 15.3245 94.9696 15.2546L89.0307 11.5749L89.007 15.8136L90.9787 15.3944C92.3565 15.6739 94.3044 15.9999 96.1811 15.9999C100.029 15.9999 102.5 14.6491 102.5 12.9956C102.5 9.52542 92.3802 9.54871 92.3802 7.05673C92.3802 6.21831 94.0431 5.61278 95.7535 5.89225L101.74 9.68845L101.787 5.31001L99.7681 5.84567C98.2478 5.54291 96.7274 5.3333 95.1121 5.3333C92.3327 5.3333 88.8407 6.42791 88.8407 8.43081C88.8407 12.3435 98.8179 12.0174 98.8179 14.0203Z" fill="url(#paint5_linear_8645_2038)"/>
<defs>
<linearGradient id="paint0_linear_8645_2038" x1="-10.2578" y1="5.68747" x2="29.7911" y2="61.6219" gradientUnits="userSpaceOnUse">
<stop stop-color="#64DBFC"/>
<stop offset="0.386644" stop-color="#30FFDF"/>
<stop offset="1" stop-color="#FFFE39"/>
</linearGradient>
<linearGradient id="paint1_linear_8645_2038" x1="-10.2578" y1="5.68747" x2="29.7911" y2="61.6219" gradientUnits="userSpaceOnUse">
<stop stop-color="#64DBFC"/>
<stop offset="0.386644" stop-color="#30FFDF"/>
<stop offset="1" stop-color="#FFFE39"/>
</linearGradient>
<linearGradient id="paint2_linear_8645_2038" x1="-10.2578" y1="5.68747" x2="29.7911" y2="61.6219" gradientUnits="userSpaceOnUse">
<stop stop-color="#64DBFC"/>
<stop offset="0.386644" stop-color="#30FFDF"/>
<stop offset="1" stop-color="#FFFE39"/>
</linearGradient>
<linearGradient id="paint3_linear_8645_2038" x1="-10.2578" y1="5.68747" x2="29.7911" y2="61.6219" gradientUnits="userSpaceOnUse">
<stop stop-color="#64DBFC"/>
<stop offset="0.386644" stop-color="#30FFDF"/>
<stop offset="1" stop-color="#FFFE39"/>
</linearGradient>
<linearGradient id="paint4_linear_8645_2038" x1="-10.2578" y1="5.68747" x2="29.7911" y2="61.6219" gradientUnits="userSpaceOnUse">
<stop stop-color="#64DBFC"/>
<stop offset="0.386644" stop-color="#30FFDF"/>
<stop offset="1" stop-color="#FFFE39"/>
</linearGradient>
<linearGradient id="paint5_linear_8645_2038" x1="-10.2578" y1="5.68747" x2="29.7911" y2="61.6219" gradientUnits="userSpaceOnUse">
<stop stop-color="#64DBFC"/>
<stop offset="0.386644" stop-color="#30FFDF"/>
<stop offset="1" stop-color="#FFFE39"/>
</linearGradient>
</defs>
</svg>
